<!DOCTYPE svg PUBLIC "-//W3C//DTD SVG 1.1//EN" "http://www.w3.org/Graphics/SVG/1.1/DTD/svg11.dtd">
<!-- Uploaded to: SVG Repo, www.svgrepo.com, Transformed by: SVG Repo Mixer Tools -->
<svg width="151px" height="151px" viewBox="0 0 24.00 24.00" xmlns="http://www.w3.org/2000/svg" fill="#725c42">
<g id="SVGRepo_bgCarrier" stroke-width="0">
<path transform="translate(0, 0), scale(0.75)" d="M16,25.555036168545485C18.54134881492369,25.728316300382417,21.257570538032436,27.557804666262605,23.4250511366811,26.219706143101803C25.587730706704857,24.884571544654627,25.77948274775343,21.810671283472146,26.14042554465895,19.29482398764299C26.449883464261752,17.137837127452443,25.77490554264247,15.1021328829917,25.32598395590029,12.969804125975921C24.81002590381661,10.519059442798678,25.020974724787333,7.761121894105225,23.324370556432676,5.918868787294679C21.48554947081858,3.9221898205522288,18.657557518808716,2.290599251469801,16,2.843209344893694C13.367551200558976,3.39059835404854,12.734206452377764,6.931999523848302,10.598248586367456,8.565127015396559C8.55118363183531,10.130288064418533,5.301887708626031,9.898712400870698,3.9240943612058654,12.076300408105768C2.4473799572357997,14.410232112898548,2.2396921914186465,17.574432291262415,3.2788562949169453,20.133350148390733C4.29276334152966,22.63007308013099,6.796895235890116,24.19842337507701,9.275881812609459,25.254954704235736C11.391626726277906,26.15667430481428,13.705441812977568,25.398583286981214,16,25.555036168545485" fill="#77DD77" strokewidth="0"/>
</g>
<g id="SVGRepo_tracerCarrier" stroke-linecap="round" stroke-linejoin="round"/>
<g id="SVGRepo_iconCarrier"> <title>barley</title> <path d="M18,2c-1.46,0-1.86,2.5-2,4,0,.34,0,.67,0,1V8h1c1.84,0,5-.19,5-2a22.7,22.7,0,0,0-4.28.28A22.76,22.76,0,0,0,18,2Zm4,0a2.82,2.82,0,0,0-3,2.63A2.29,2.29,0,0,0,19,5a2.79,2.79,0,0,0,3-2.55A3.38,3.38,0,0,0,22,2ZM14,4c-.93.93-1,4.15-1,6v1h1c1.84,0,5.07-.07,6-1-.73-.73-2.79-1-4-1a4.2,4.2,0,0,0-1.16.19A4.38,4.38,0,0,0,15,8C15,6.82,14.71,4.75,14,4ZM11,7c-.93.93-1,4.15-1,6v1h1c1.84,0,5.07-.07,6-1-.73-.73-2.79-1-4-1a4.2,4.2,0,0,0-1.16.19A4.38,4.38,0,0,0,12,11C12,9.82,11.71,7.75,11,7ZM8,10c-.93.93-1,4.15-1,6v1H8c1.84,0,5.07-.07,6-1-.73-.73-2.79-1-4-1a4.2,4.2,0,0,0-1.16.19A4.38,4.38,0,0,0,9,14C9,12.82,8.71,10.75,8,10ZM5,13c-.93.93-1,4.15-1,6v.31l-2,2L2.7,22l2-2H5c1.84,0,5.07-.07,6-1-.73-.73-2.79-1-4-1a4.2,4.2,0,0,0-1.16.19A4.38,4.38,0,0,0,6,17C6,15.82,5.71,13.75,5,13Z"/> <rect width="24" height="24" fill="none"/> </g>
</svg>