<!DOCTYPE svg PUBLIC "-//W3C//DTD SVG 1.1//EN" "http://www.w3.org/Graphics/SVG/1.1/DTD/svg11.dtd">
<!-- Uploaded to: SVG Repo, www.svgrepo.com, Transformed by: SVG Repo Mixer Tools -->
<svg fill="#725c42" height="151px" width="151px" version="1.1" xmlns="http://www.w3.org/2000/svg" viewBox="-46.3 -46.3 555.60 555.60" xmlns:xlink="http://www.w3.org/1999/xlink" enable-background="new 0 0 463.001 463.001" transform="matrix(1, 0, 0, 1, 0, 0)" stroke="#725c42" stroke-width="0.0046300099999999995">
<g id="SVGRepo_bgCarrier" stroke-width="0">
<path transform="translate(-46.3, -46.3), scale(17.3625)" d="M16,29.76333835348487C18.149643732781627,29.90779560072324,20.410978021118822,31.203936168790843,22.369726658747496,30.30664031526491C24.332273571610894,29.407604485228877,24.78321895063885,26.80824207738423,26.131272031658163,25.122238311186603C27.403685729067814,23.530836372939497,29.83952259412445,22.60896400839657,30.136211516344247,20.593133551774685C30.446616514017126,18.48411025722417,28.253379903066335,16.820890494141235,27.654158907677186,14.775098540343919C27.167092313880623,13.112211348106337,27.315632790182846,11.375085044003638,26.940700296242795,9.683383738841208C26.465589112868795,7.539674612526929,26.82709628178066,4.825524151682816,25.138080158687366,3.422511681766359C23.48516443176897,2.0494866733724937,20.873694464277296,2.410743168555437,18.78299552701391,2.9070354490665284C16.869742522550034,3.3612054301461383,15.540361356915948,5.016473637395208,13.893917866164834,6.09166258012443C12.72996822621314,6.851765061503123,11.80711048813785,8.080140048332467,10.443944897056975,8.352746207167613C7.888591795538739,8.863766290149618,4.878673509029994,6.880648797212329,2.711556668757714,8.327913665596169C0.9495793408613948,9.50461435757768,1.3169982859585916,12.336822569770904,1.3056614581095047,14.455562784819634C1.2947805372089198,16.48909853183123,1.376895300604545,18.750640948112082,2.64729083354732,20.338558206250145C3.94334184895121,21.958543259267408,6.876078673582601,21.427804596095164,8.176787108494779,23.044052526914292C9.589270469593274,24.7991909179758,8.291297426352045,28.007513851215535,10.000360014089352,29.47541203854146C11.535995682942403,30.794355435276152,13.980255827677887,29.627610428522228,16,29.76333835348487" fill="#77DD77 " strokewidth="0"/>
</g>
<g id="SVGRepo_tracerCarrier" stroke-linecap="round" stroke-linejoin="round"/>
<g id="SVGRepo_iconCarrier"> <g> <g> <path d="m441.044,308.903c-3.285-8.994-10.277-15.956-19.184-19.102-8.9-3.145-18.637-2.163-26.706,2.69l-78.169,46.902-10.752,4.607h-56.404c-0.691,0-1.077-0.386-1.278-0.71-0.202-0.324-0.379-0.841-0.073-1.46 0.174-0.354 0.474-0.622 0.845-0.754l42.802-15.295c16.563-5.566 26.054-22.511 21.614-38.615-2.33-8.452-7.861-15.368-15.573-19.475-7.594-4.044-16.624-4.798-24.766-2.071l-44.166,14.719-115.97,7.733c-7.614,0.508-14.778,3.759-20.173,9.154l-63.084,63.083c-12.102,12.102-13.223,31.298-2.553,43.701 2.82,3.279 14.975,14.926 33.195,32.322 10.618,10.137 20.646,19.711 25.407,24.472 1.458,1.458 3.378,2.197 5.306,2.197 1.698,0 3.403-0.575 4.8-1.738l34.649-28.875c7.263-6.053 16.471-9.387 25.927-9.387h118.622c4.294,0 8.473-0.857 12.42-2.549l55.987-23.995c0.156-0.067 0.31-0.139 0.46-0.216l2.842-1.453c0.151-0.077 0.3-0.159 0.444-0.247l79.285-47.571c13.38-8.028 19.371-24.037 14.246-38.067zm-21.962,25.204l-79.067,47.44-2.39,1.222-55.753,23.895c-2.069,0.887-4.261,1.336-6.512,1.336h-118.622c-12.958,0-25.576,4.568-35.53,12.864l-29.436,24.53c-5.38-5.224-12.912-12.415-20.765-19.912-13.202-12.604-29.632-28.289-32.183-31.255-5.488-6.379-4.686-16.837 1.789-23.312l63.084-63.084c2.824-2.825 6.576-4.527 10.563-4.793l116.93-7.797c0.638-0.042 1.267-0.166 1.872-0.368l45.088-15.027c1.724-0.577 3.49-0.863 5.247-0.863 2.656,0 5.289,0.654 7.716,1.946 4.04,2.152 6.939,5.782 8.163,10.223 2.288,8.298-3.086,17.461-11.979,20.425-0.051,0.017-0.102,0.035-0.151,0.053l-42.872,15.32c-4.063,1.452-7.35,4.384-9.256,8.256-2.534,5.152-2.236,11.137 0.798,16.011 3.034,4.874 8.272,7.783 14.013,7.783h57.943c1.016,0 2.021-0.206 2.954-0.606l12.635-5.414c0.312-0.133 0.614-0.288 0.904-0.462l78.612-47.168c4.224-2.542 9.32-3.052 13.986-1.405 4.737,1.674 8.321,5.262 10.09,10.105 2.62,7.17-0.764,15.793-7.871,20.057z"/> <path d="m283.86,222.171v17.329c0,4.142 3.357,7.5 7.5,7.5s7.5-3.358 7.5-7.5v-23.144c0-0.003 0-0.007 0-0.01v-35.026c72.319-10.024 129.001-68.702 135.967-141.961 0.211-2.227-0.582-4.432-2.163-6.013-1.582-1.583-3.791-2.378-6.014-2.163-56.453,5.368-104.245,40.259-127.79,89.077v-88.76c0-9.098 7.401-16.5 16.5-16.5 4.143,0 7.5-3.358 7.5-7.5s-3.357-7.5-7.5-7.5c-17.369,0-31.5,14.131-31.5,31.5v28.212c-15.596-24.116-41.665-40.814-71.79-43.678-2.224-0.212-4.433,0.581-6.014,2.163-1.581,1.582-2.374,3.787-2.163,6.013 4.147,43.615 37.298,78.706 79.967,85.844v51.058c-23.546-48.818-71.337-83.711-127.79-89.078-2.227-0.214-4.432,0.581-6.014,2.163-1.581,1.582-2.374,3.787-2.163,6.013 6.966,73.259 63.648,131.936 135.967,141.961zm-63.519-189.691c30.938,6.768 55.271,31.101 62.039,62.04-30.94-6.768-55.273-31.101-62.039-62.04zm198.349,14.839c-9.04,55.857-50.24,100.852-104.009,115.466l61.982-61.982c2.929-2.929 2.929-7.678 0-10.606-2.93-2.929-7.678-2.929-10.607,0l-63.451,63.451c13.935-54.904 59.426-97.159 116.085-106.329zm-138.575,147.179l-63.451-63.451c-2.93-2.929-7.678-2.929-10.607,0s-2.929,7.678 0,10.606l61.982,61.982c-53.77-14.615-94.969-59.61-104.009-115.466 56.658,9.17 102.15,51.426 116.085,106.329z"/> </g> </g> </g>
</svg>