<!DOCTYPE svg PUBLIC "-//W3C//DTD SVG 1.1//EN" "http://www.w3.org/Graphics/SVG/1.1/DTD/svg11.dtd">
<!-- Uploaded to: SVG Repo, www.svgrepo.com, Transformed by: SVG Repo Mixer Tools -->
<svg fill="#725c42" height="151px" width="151px" version="1.1" id="Layer_1" xmlns="http://www.w3.org/2000/svg" xmlns:xlink="http://www.w3.org/1999/xlink" viewBox="-25.6 -25.6 563.14 563.14" xml:space="preserve" stroke="#725c42">
<g id="SVGRepo_bgCarrier" stroke-width="0">
<path transform="translate(-25.6, -25.6), scale(17.598125)" d="M16,26.59143780259525C18.31359598350622,25.92540756346583,20.251207508311673,24.78226670484723,22.275145701285098,23.47842743355863C24.71075015755168,21.909389035829463,27.67301809711158,20.896896399597424,28.907949916709246,18.276019835949423C30.382137917759266,15.147373605405424,30.97315970343785,11.338776085812286,29.460814080242713,8.228395367260369C27.898759965952877,5.0157811844275795,24.565982735434947,2.7626810205066294,21.052154457784813,2.1193197076392227C17.839885723983585,1.531172175499905,15.084822851305166,3.9376329500836444,12.00831879322686,5.032946018729419C8.89663948686124,6.140782363280124,4.334626232698456,5.481232516234378,3.055599993835017,8.526547171942445C1.748920611202439,11.63770295071566,6.261321634826356,14.293433566546167,6.7145229537524145,17.637280132002587C7.206156510719371,21.264690539418662,3.0926990505715084,25.701070353708403,5.727699910223317,28.242050536197176C8.301711717713806,30.72421784493563,12.563705823285115,27.58066662584381,16,26.59143780259525" fill="#77DD77 " strokewidth="0"/>
</g>
<g id="SVGRepo_tracerCarrier" stroke-linecap="round" stroke-linejoin="round"/>
<g id="SVGRepo_iconCarrier"> <g> <g> <g> <path d="M255.959,128c11.776,0,21.333-9.557,21.333-21.333s-9.557-21.333-21.333-21.333s-21.333,9.557-21.333,21.333 S244.183,128,255.959,128z"/> <path d="M383.968,0h-256C80.907,0,42.635,38.272,42.635,85.333v213.333c0,47.061,38.272,85.333,85.333,85.333h64l0.085,92.075 c0,14.571,8.683,27.584,22.165,33.173c4.331,1.792,8.875,2.688,13.397,2.688c9.557,0,19.157-3.968,27.051-11.968L350.475,384 h33.493c47.061,0,85.333-38.272,85.333-85.333V85.333C469.301,38.272,431.029,0,383.968,0z M426.635,298.667 c0,23.531-19.157,42.667-42.667,42.667h-36.629c-9.621,0-18.645,3.755-26.752,12.011l-85.888,103.979l-0.064-80.085 c0-19.797-16.107-35.904-35.904-35.904h-70.763c-23.531,0-42.667-19.136-42.667-42.667V85.333 c0-23.531,19.136-42.667,42.667-42.667h256c23.509,0,42.667,19.136,42.667,42.667V298.667z"/> <path d="M298.626,256h-21.333v-85.333c0-11.776-9.536-21.333-21.333-21.333h-21.333c-11.797,0-21.333,9.557-21.333,21.333 S222.829,192,234.626,192v64h-21.333c-11.797,0-21.333,9.557-21.333,21.333s9.536,21.333,21.333,21.333h85.333 c11.797,0,21.333-9.557,21.333-21.333S310.423,256,298.626,256z"/> </g> </g> </g> </g>
</svg>