<!DOCTYPE svg PUBLIC "-//W3C//DTD SVG 1.1//EN" "http://www.w3.org/Graphics/SVG/1.1/DTD/svg11.dtd">
<!-- Uploaded to: SVG Repo, www.svgrepo.com, Transformed by: SVG Repo Mixer Tools -->
<svg width="151px" height="151px" viewBox="0 0 1087.00 1087.00" fill="#725c42" class="icon" version="1.1" xmlns="http://www.w3.org/2000/svg">
<g id="SVGRepo_bgCarrier" stroke-width="0">
<path transform="translate(0, 0), scale(33.96875)" d="M16,24.625447397953586C17.65597495404492,24.970857612805933,18.97946234114766,26.33533089217728,20.66505922683235,26.477894575906635C22.67485514331823,26.64787822492249,24.99038357285818,26.77049952459888,26.572649502315716,25.519656370828617C28.105410649692445,24.30794868511833,28.10525499250289,21.98762523836313,28.699533134930263,20.12632844850127C29.291528416363754,18.27218164706447,30.981024348313525,16.247354339121575,30.08475667140258,14.5196324211491C29.034225912860766,12.494539846916627,25.966270171950338,12.656305620530006,24.125383365167878,11.308807726851422C23.056404476972027,10.526333326511496,22.16614530182159,9.497065785177272,21.592091824364108,8.303145915330582C20.472911805459713,5.975468590870314,21.2666322830038,2.553496856790332,19.18234456433875,1.028245943876863C17.487325886901054,-0.21214364438165,14.840757533865759,0.970699731437288,13.032588882867845,2.039428311138952C11.276112151155415,3.077604081815008,11.040328034017637,5.704743259037055,9.346264206026802,6.841918349583379C7.562039640158326,8.039615684667163,4.5891100487188385,6.964156379265035,3.223897339910934,8.623713690003274C1.9370367488624634,10.18802589424596,2.1242600798563243,12.774097879257317,2.941557257837779,14.627502361824407C3.790729277289225,16.55319018960933,7.318623456970921,16.631494502303138,7.670128579635218,18.70653929156409C8.110906805326426,21.308591157857222,3.2959652593363784,23.902928999766402,4.871439416421868,26.020200956667267C6.355395614709212,28.014482379674146,9.661257923128598,25.00628405210647,12.12777817416119,24.697152617548475C13.422869274599565,24.534837562728146,14.722276257222463,24.358934410280245,16,24.625447397953586" fill="#77DD77" strokewidth="0"/>
</g>
<g id="SVGRepo_tracerCarrier" stroke-linecap="round" stroke-linejoin="round"/>
<g id="SVGRepo_iconCarrier">
<path d="M665.579712 1024c-151.483292 0-290.523313-52.47814-372.080835-140.527803-50.855105-54.912693-75.200634-118.616827-70.196275-184.349756s42.198917-113.477216 90.21371-167.98415c33.272223-37.600317 40.575882-62.892617 36.7888-73.983358-5.004359-13.525294-31.919694-24.480782-46.797517-27.050587-104.550522-0.811518-195.169991-34.354246-243.45529-90.213711a131.060098 131.060098 0 0 1-33.13697-107.390833C42.063664 134.982433 170.959715 61.404834 326.635847 61.404834c158.78695 0 279.703078 76.012152 281.326113 176.640338a139.986792 139.986792 0 0 1-37.329811 97.787875c-29.349888 32.190199-33.948488 54.101176-31.513935 59.105534 0 0 10.955488 23.398758 106.579316 26.103818 230.741514 6.627394 415.497028 122.539163 439.166292 275.510236a228.442214 228.442214 0 0 1-57.482499 187.32532c-75.200634 87.508651-210.588826 140.122045-361.801611 140.122045z m-338.132347-881.984414c-120.10461 0-212.076608 54.101176-219.51552 102.386474a51.125611 51.125611 0 0 0 14.472065 42.198917c31.784441 37.600317 104.415269 61.945846 184.079249 61.945846h6.356889c9.1972 1.487782 89.943204 15.959847 113.206709 81.151764 16.230353 45.174482-1.352529 97.382116-52.342887 155.135121-40.575882 45.715493-67.626469 78.852463-70.196275 120.375115a165.143838 165.143838 0 0 0 48.826311 122.944922c66.544446 71.684058 183.402985 114.559239 312.569541 114.559239s240.344472-42.063664 300.667283-112.395192a151.348039 151.348039 0 0 0 38.952847-121.727645C987.075948 596.059701 831.805574 507.198521 643.127724 501.788403c-100.087175-2.840312-158.651697-27.050588-178.939638-75.606393-17.718135-41.657905-1.487782-93.054022 45.580241-144.585391a59.240787 59.240787 0 0 0 16.771364-42.604676c-0.135253-45.985999-82.504293-96.976357-199.498085-96.976357zM875.762779 154.323603L810.706115 0l-57.482499 154.323603h41.116894V202.879408h40.440629v-48.555805h40.98164zM1029.139612 377.490952l-89.537446-212.211861-78.987716 212.211861h56.400475v66.814952h55.588958v-66.814952h56.535729zM168.525162 675.58843L79.122969 463.511821 0 675.58843h56.535728v66.950204h55.453705v-66.950204h56.535729zM238.450931 945.959054l-72.630828-172.176991-64.109893 172.176991h45.850746v54.101176h45.039229v-54.101176h45.850746zM753.223616 319.196936L693.847576 178.263373 641.234183 319.196936h37.600317v44.498217h36.788799V319.196936h37.600317zM698.716682 899.973055a33.813235 33.813235 0 1 1 0-67.626469c102.521728 0 192.464932-49.773081 192.464932-106.444063a65.462422 65.462422 0 0 0-15.959847-40.575882 33.82676 33.82676 0 1 1 52.883899-42.198917 133.088892 133.088892 0 0 1 30.702417 83.180558c-0.135253 97.11161-114.288733 173.664773-260.091401 173.664773z"/>
</g>
</svg>