<!DOCTYPE svg PUBLIC "-//W3C//DTD SVG 1.1//EN" "http://www.w3.org/Graphics/SVG/1.1/DTD/svg11.dtd">
<!-- Uploaded to: SVG Repo, www.svgrepo.com, Transformed by: SVG Repo Mixer Tools -->
<svg width="800px" height="800px" viewBox="0 0 24.00 24.00" fill="none" xmlns="http://www.w3.org/2000/svg" stroke="#66493A" transform="matrix(1, 0, 0, 1, 0, 0)">
<g id="SVGRepo_bgCarrier" stroke-width="0">
<path transform="translate(0, 0), scale(0.75)" d="M16,27.336826970179878C19.068521325307934,27.54487551627583,22.20365233717784,29.704528448258994,24.947566448820787,28.31526869237139C27.744223395463287,26.89930493078427,29.145806570934404,23.52717097531576,29.638689372476037,20.431478807919884C30.092335685536153,17.58222268919206,29.03278683767374,14.708766370522648,27.50345076638174,12.262302271357054C26.21544993656185,10.20189982025433,23.78191605401444,9.422368801800936,21.84199545654767,7.959183074133048C19.851215793520463,6.457636880089508,18.488561110198557,3.743644318776093,16,3.5858208719227047C13.494634760614534,3.426931714615682,11.35684828311144,5.3954487337773225,9.593636846087392,7.182397578981998C8.039850012965797,8.75710242086251,7.664820809614444,10.983773960195057,6.7244894271790105,12.98620392227389C5.60072253176702,15.379258694025907,3.3367417558005434,17.409138887576063,3.553898582708955,20.043983491790147C3.787788934361267,22.881862179752122,5.4357629878923035,25.719349902336564,7.8925670254597105,27.158924167589078C10.28331320313192,28.55979156258712,13.235409194163804,27.149385190661942,16,27.336826970179878" fill="#77DD77" strokewidth="0"/>
</g>
<g id="SVGRepo_tracerCarrier" stroke-linecap="round" stroke-linejoin="round" stroke="#CCCCCC" stroke-width="0.192"/>
<g id="SVGRepo_iconCarrier"> <path d="M16.1694 10.0598H7.82933C6.64933 10.0598 6.23934 9.26982 6.92934 8.30982L11.0994 2.46982C11.5894 1.76982 12.4094 1.76982 12.8894 2.46982L17.0593 8.30982C17.7593 9.26982 17.3494 10.0598 16.1694 10.0598Z" stroke="#66493A" stroke-width="0.792" stroke-linecap="round" stroke-linejoin="round"/> <path d="M17.5894 18.0001H6.41937C4.83937 18.0001 4.29937 16.9501 5.22937 15.6701L9.21936 10.0601H14.7894L18.7794 15.6701C19.7094 16.9501 19.1694 18.0001 17.5894 18.0001Z" stroke="#66493A" stroke-width="0.792" stroke-linecap="round" stroke-linejoin="round"/> <path opacity="0.4" d="M12 22V18" stroke="#66493A" stroke-width="0.792" stroke-linecap="round" stroke-linejoin="round"/> </g>
</svg>